<?xml version="1.0" encoding="UTF-8"?><svg width="500" height="500" version="1.1" viewBox="0 0 500.00001 500.00001" xmlns="http://www.w3.org/2000/svg"><g fill="#332c18"><path d="m254.99 30.001v155.28a70.4 70.4 0 0 1 27.5 -5.6762 70.4 70.4 0 0 1 27.5 5.5988v-144.2l-55-11z"/><path d="m365.93 44.991-77.879 134.89a70.4 70.4 0 0 1 48.804 25.468l71.206-123.33z"/><path d="m449.74 110.69-133.93 77.324a70.4 70.4 0 0 1 34.601 43.534l117.3-67.725-17.974-53.133z"/><path d="m337.43 206a70.4 70.4 0 0 1 15.464 44 70.4 70.4 0 0 1 -0.95176 11h123.05l11-55h-148.56z"/><path d="m352.31 258.56a70.4 70.4 0 0 1 -27.506 47.629l124.94 72.134 37.026-42.133-134.46-77.629z"/><path d="m338.67 292.3a70.4 70.4 0 0 1 -47.631 27.498l72.145 124.96 53.131-17.974-77.645-134.48z"/><path d="m310 314.73a70.4 70.4 0 0 1 -27.5 5.674 70.4 70.4 0 0 1 -27.5 -5.5967v144.2l55 11v-155.27z"/><path d="m224.56 289.86-78.626 136.18 42.131 37.028 82.96-143.69a70.4 70.4 0 0 1 -46.464 -29.522z"/><path d="m212.2 247.83-153.04 88.357 17.974 53.133 155.43-89.736a70.4 70.4 0 0 1 -20.472 -49.582 70.4 70.4 0 0 1 0.10957 -2.1721z"/><path d="m23.99 206-11 55h200.01a70.4 70.4 0 0 1 -0.90664 -11 70.4 70.4 0 0 1 15.529 -44h-203.63z"/></g></svg>
