<?xml version="1.0" encoding="UTF-8"?>
<svg width="500" height="500" version="1.1" viewBox="0 0 500.00001 500.00001" xmlns="http://www.w3.org/2000/svg" xmlns:cc="http://creativecommons.org/ns#" xmlns:dc="http://purl.org/dc/elements/1.1/" xmlns:rdf="http://www.w3.org/1999/02/22-rdf-syntax-ns#">
 <g transform="translate(0 -552.36)">
  <g transform="translate(254.53 -49.999)">
   <g fill="#332c18">
    <path d="m0.46475 632.36v155.28a70.4 70.4 0 0 1 27.5 -5.6762 70.4 70.4 0 0 1 27.5 5.5988v-144.2l-55-11z"/>
    <path d="m111.4 647.35-77.879 134.89a70.4 70.4 0 0 1 48.804 25.468l71.206-123.33-42.131-37.028z"/>
    <path d="m195.21 713.05-133.93 77.324a70.4 70.4 0 0 1 34.601 43.534l117.3-67.725-17.974-53.133z"/>
    <path d="m82.9 808.36a70.4 70.4 0 0 1 15.464 44 70.4 70.4 0 0 1 -0.95176 11h123.05l11-55h-148.56z"/>
    <path d="m97.783 860.92a70.4 70.4 0 0 1 -27.506 47.629l124.94 72.134 37.026-42.133-134.46-77.629z"/>
    <path d="m84.136 894.66a70.4 70.4 0 0 1 -47.631 27.498l72.145 124.96 53.131-17.974-77.645-134.48z"/>
    <path d="m55.465 917.09a70.4 70.4 0 0 1 -27.5 5.674 70.4 70.4 0 0 1 -27.5 -5.5967v144.2l55 11v-155.27z"/>
    <path d="m-29.974 892.22-78.626 136.18l42.131 37.028 82.96-143.69a70.4 70.4 0 0 1 -46.464 -29.522z"/>
    <path d="m-42.326 850.19-153.04 88.357 17.974 53.133 155.43-89.736a70.4 70.4 0 0 1 -20.472 -49.582 70.4 70.4 0 0 1 0.10957 -2.1721z"/>
    <path d="m-230.54 808.36-11 55h200.01a70.4 70.4 0 0 1 -0.90664 -11 70.4 70.4 0 0 1 15.529 -44h-203.63z"/>
   </g>
  </g>
 </g>
</svg>
